<?xml version="1.0" encoding="utf-8"?>
<!-- Generator: Adobe Illustrator 24.3.0, SVG Export Plug-In . SVG Version: 6.00 Build 0)  -->
<svg version="1.1" id="レイヤー_1" xmlns="http://www.w3.org/2000/svg" xmlns:xlink="http://www.w3.org/1999/xlink" x="0px"
	 y="0px" viewBox="0 0 480 480" style="enable-background:new 0 0 480 480;" xml:space="preserve">
<style type="text/css">
	.st0{fill:#00A63C;}
	.st1{fill:#F08C00;}
	.st2{fill:none;}
	.st3{fill:#3C3C3C;}
</style>
<g>
	<g>
		<path class="st0" d="M15.4,206.8c-6.3,0-11.3,5.1-11.3,11.3c0,6.3,5.1,11.3,11.3,11.3c6.3,0,11.3-5.1,11.3-11.3
			C26.8,211.9,21.7,206.8,15.4,206.8z"/>
		<path class="st1" d="M53.4,223.5c-9.1,0-16.5,7.4-16.5,16.5c0,9.1,7.4,16.5,16.5,16.5c9.1,0,16.5-7.4,16.5-16.5
			C69.8,230.9,62.5,223.5,53.4,223.5z"/>
		<path class="st1" d="M15.4,252.8c-5,0-9.1,4.1-9.1,9.1c0,5,4.1,9.1,9.1,9.1c5,0,9.1-4.1,9.1-9.1C24.5,256.9,20.4,252.8,15.4,252.8
			z"/>
		<path class="st1" d="M53.4,207.5c6.3,0,11.3-5.1,11.3-11.3c0-6.2-5.1-11.3-11.3-11.3S42,190,42,196.2
			C42,202.5,47.1,207.5,53.4,207.5z"/>
		<path class="st0" d="M91.3,227.2c5,0,9.1-4.1,9.1-9.1c0-5-4.1-9.1-9.1-9.1s-9.1,4.1-9.1,9.1C82.2,223.1,86.3,227.2,91.3,227.2z"/>
		<path class="st1" d="M91.3,250.2c-6.4,0-11.7,5.2-11.7,11.7c0,6.4,5.2,11.7,11.7,11.7c6.4,0,11.7-5.2,11.7-11.7
			C102.9,255.4,97.7,250.2,91.3,250.2z"/>
		<path class="st0" d="M53.4,272.5c-6.3,0-11.3,5.1-11.3,11.3c0,6.3,5.1,11.3,11.3,11.3c6.3,0,11.3-5.1,11.3-11.3
			C64.7,277.5,59.6,272.5,53.4,272.5z"/>
	</g>
	<g>
		<path class="st0" d="M303.5,258.6c-1,0.1-1.9,0.2-2.9,0.2c-10.5,0-19-8.5-19-19c0-10.5,8.5-18.9,19-18.9c3.3,0,6.4,0.8,9.1,2.3
			v-12.7c-2.9-0.9-5.9-1.4-9.1-1.4c-17,0-30.7,13.8-30.7,30.7c0,17,13.8,30.7,30.7,30.7c5.5,0,10.7-1.5,15.1-4v-26.7h-12.2V258.6z"
			/>
		<polygon class="st0" points="412.2,241.1 377,208.7 377,269.4 389.6,269.4 389.6,237.9 424.8,271 424.8,210.7 412.2,210.7 		"/>
		<polygon class="st0" points="331.1,269.4 359.4,269.4 359.4,256.8 343.7,256.8 343.7,246.3 359.4,246.3 359.4,233.7 343.7,233.7 
			343.7,223.3 359.4,223.3 359.4,210.7 331.1,210.7 		"/>
		<polygon class="st0" points="438.3,210.7 438.3,223.3 450.8,223.3 450.8,269.4 463.4,269.4 463.4,223.3 475.9,223.3 475.9,210.7 
					"/>
	</g>
	<g>
		<path class="st2" d="M151.7,221c-5.3,0-9.5,4.3-9.5,9.5c0,5.3,4.3,9.5,9.5,9.5c5.3,0,9.5-4.3,9.5-9.5
			C161.3,225.3,157,221,151.7,221z"/>
		<path class="st1" d="M151.7,209.1c-5.2,0-9.9,1.8-13.6,4.8v0c0,0,0,0,0,0c-1.1,0.9-2.1,2-3.1,3.1c-3.4,3.9-4.7,8.7-4.7,12.5v39.8
			h11.9v-19.6c2.9,1.4,6.1,2.2,9.5,2.2c11.9,0,21.5-9.6,21.5-21.5S163.6,209.1,151.7,209.1z M151.7,240.1c-5.3,0-9.5-4.3-9.5-9.5
			c0-5.3,4.3-9.5,9.5-9.5c5.3,0,9.5,4.3,9.5,9.5C161.3,235.9,157,240.1,151.7,240.1z"/>
	</g>
	<polygon class="st1" points="241.6,233 231.9,210.7 218.5,210.7 235.9,248.9 235.9,269.4 247.8,269.4 247.8,248.6 264.8,210.7 
		251.5,210.7 	"/>
	<g>
		<polygon class="st2" points="193.2,252.2 201.4,252.2 197.3,239.5 		"/>
		<path class="st1" d="M197.3,207.9l-22.9,61.5h13.3l2.1-6.7h14.9l2.1,6.7h13.3L197.3,207.9z M193.2,252.2l4.1-12.7l4.1,12.7H193.2z
			"/>
	</g>
</g>
<g>
	<path class="st3" d="M101.7,363.5c0.8,0.1,1.4,0.3,1.9,0.5v4.2H102c-0.8,0-1.3,0.1-1.6,0.4s-0.4,0.8-0.4,1.5v0.8h3.7v4.9H100v14.1
		h-7.2v-14.1h-2.7v-4.9h2.7V370c0-2.4,0.6-4.2,1.8-5.2c1.2-1,2.9-1.5,5.1-1.5C100.3,363.3,100.9,363.4,101.7,363.5z"/>
	<path class="st3" d="M123.1,372.9c1.9,1.7,2.9,4.2,2.9,7.4s-1,5.7-2.9,7.4c-1.9,1.7-4.5,2.5-7.9,2.5s-6-0.8-7.8-2.5
		c-1.9-1.7-2.8-4.2-2.8-7.4s0.9-5.7,2.8-7.4c1.9-1.7,4.5-2.5,7.8-2.5S121.2,371.2,123.1,372.9z M111.7,379.3v2.1c0,2.7,1.2,4,3.5,4
		c2.4,0,3.6-1.3,3.6-4v-2.1c0-2.7-1.2-4.1-3.6-4.1C112.9,375.2,111.7,376.6,111.7,379.3z"/>
	<path class="st3" d="M142.4,370.5c0.4,0.1,0.6,0.2,0.6,0.2v6h-2.3c-1.5,0-2.6,0.4-3.2,1.2c-0.7,0.8-1,1.9-1,3.4v8.5h-7.2v-19h5.9
		l0.5,2.9c0.4-1.1,1.1-1.9,2.1-2.5c0.9-0.6,2-0.8,3.2-0.8C141.5,370.4,142,370.4,142.4,370.5z"/>
	<path class="st3" d="M176.5,389.8l-3.2-15.1h-0.1l-3.2,15.1h-8.7l-5.8-24.8h8.3l2.8,14h0.1l2.8-14h7.8l3,14h0.1l2.7-14h7.9
		l-5.8,24.8H176.5z"/>
	<path class="st3" d="M210.1,372.9c1.9,1.7,2.9,4.2,2.9,7.4s-1,5.7-2.9,7.4c-1.9,1.7-4.5,2.5-7.9,2.5c-3.3,0-6-0.8-7.8-2.5
		s-2.8-4.2-2.8-7.4s0.9-5.7,2.8-7.4s4.5-2.5,7.8-2.5C205.6,370.4,208.2,371.2,210.1,372.9z M198.7,379.3v2.1c0,2.7,1.2,4,3.5,4
		c2.4,0,3.6-1.3,3.6-4v-2.1c0-2.7-1.2-4.1-3.6-4.1C199.9,375.2,198.7,376.6,198.7,379.3z"/>
	<path class="st3" d="M234.1,372.9c1.9,1.7,2.9,4.2,2.9,7.4s-1,5.7-2.9,7.4c-1.9,1.7-4.5,2.5-7.9,2.5c-3.3,0-6-0.8-7.8-2.5
		s-2.8-4.2-2.8-7.4s0.9-5.7,2.8-7.4s4.5-2.5,7.8-2.5C229.6,370.4,232.2,371.2,234.1,372.9z M222.7,379.3v2.1c0,2.7,1.2,4,3.5,4
		c2.4,0,3.6-1.3,3.6-4v-2.1c0-2.7-1.2-4.1-3.6-4.1C223.9,375.2,222.7,376.6,222.7,379.3z"/>
	<path class="st3" d="M261.5,367.4c2.1,1.8,3.2,4.5,3.2,7.9h-7.6c0-1.4-0.4-2.6-1.1-3.4c-0.8-0.8-1.8-1.3-3.2-1.3
		c-1.6,0-2.8,0.5-3.5,1.5c-0.8,1-1.1,2.4-1.1,4.2v2.3c0,1.8,0.4,3.2,1.1,4.2c0.8,1,1.9,1.5,3.5,1.5c1.5,0,2.7-0.4,3.5-1.2
		c0.8-0.8,1.2-1.9,1.2-3.3h7.3c0,3.4-1,6-3.1,7.8c-2.1,1.8-5,2.7-8.8,2.7c-4.2,0-7.4-1.1-9.6-3.2c-2.2-2.2-3.3-5.4-3.3-9.6
		c0-4.2,1.1-7.4,3.3-9.6s5.4-3.2,9.6-3.2C256.4,364.6,259.3,365.5,261.5,367.4z"/>
	<path class="st3" d="M286.2,372.9c1.9,1.7,2.9,4.2,2.9,7.4s-1,5.7-2.9,7.4c-1.9,1.7-4.5,2.5-7.9,2.5c-3.3,0-6-0.8-7.8-2.5
		s-2.8-4.2-2.8-7.4s0.9-5.7,2.8-7.4s4.5-2.5,7.8-2.5C281.6,370.4,284.3,371.2,286.2,372.9z M274.8,379.3v2.1c0,2.7,1.2,4,3.5,4
		c2.4,0,3.6-1.3,3.6-4v-2.1c0-2.7-1.2-4.1-3.6-4.1C275.9,375.2,274.8,376.6,274.8,379.3z"/>
	<path class="st3" d="M322.6,372.2c1.1,1.2,1.6,3,1.6,5.3v12.3H317v-11.4c0-0.8-0.2-1.5-0.6-2c-0.4-0.5-1-0.7-1.7-0.7
		c-0.8,0-1.5,0.3-2.1,0.9c-0.5,0.6-0.8,1.3-0.8,2.1v11.2h-7.2v-11.4c0-0.8-0.2-1.5-0.6-2c-0.4-0.5-1-0.7-1.7-0.7
		c-0.8,0-1.5,0.3-2.1,0.9c-0.5,0.6-0.8,1.3-0.8,2.1v11.2h-7.2v-19h5.9l0.5,2.8c0.7-1,1.7-1.8,2.9-2.4c1.2-0.6,2.4-0.9,3.8-0.9
		c2.9,0,4.8,1.1,5.8,3.3c0.7-1,1.7-1.8,2.9-2.4c1.2-0.6,2.4-0.9,3.7-0.9C319.9,370.4,321.5,371,322.6,372.2z"/>
	<path class="st3" d="M358.6,372.2c1.1,1.2,1.6,3,1.6,5.3v12.3H353v-11.4c0-0.8-0.2-1.5-0.6-2c-0.4-0.5-1-0.7-1.7-0.7
		c-0.8,0-1.5,0.3-2.1,0.9c-0.5,0.6-0.8,1.3-0.8,2.1v11.2h-7.2v-11.4c0-0.8-0.2-1.5-0.6-2c-0.4-0.5-1-0.7-1.7-0.7
		c-0.8,0-1.5,0.3-2.1,0.9c-0.5,0.6-0.8,1.3-0.8,2.1v11.2h-7.2v-19h5.9l0.5,2.8c0.7-1,1.7-1.8,2.9-2.4c1.2-0.6,2.4-0.9,3.8-0.9
		c2.9,0,4.8,1.1,5.8,3.3c0.7-1,1.7-1.8,2.9-2.4c1.2-0.6,2.4-0.9,3.7-0.9C355.9,370.4,357.5,371,358.6,372.2z"/>
	<path class="st3" d="M382.3,372.8c1.8,1.6,2.8,4.1,2.8,7.5v1.2h-14.3c0,1.4,0.3,2.4,0.9,3.1s1.6,1,2.9,1c1.2,0,2.1-0.3,2.6-0.8
		c0.6-0.5,0.8-1.2,0.8-2h6.9c0,2.3-0.9,4.1-2.6,5.4s-4.3,1.9-7.7,1.9c-3.5,0-6.3-0.8-8.2-2.5c-1.9-1.6-2.9-4.1-2.9-7.5
		c0-3.3,0.9-5.7,2.8-7.4s4.5-2.5,7.8-2.5C377.8,370.4,380.4,371.2,382.3,372.8z M370.8,378.2h7c0-1-0.3-1.8-0.8-2.3
		c-0.6-0.6-1.3-0.9-2.4-0.9C372.3,375,371.1,376,370.8,378.2z"/>
	<path class="st3" d="M401.5,370.5c0.4,0.1,0.6,0.2,0.6,0.2v6h-2.3c-1.5,0-2.6,0.4-3.2,1.2c-0.7,0.8-1,1.9-1,3.4v8.5h-7.2v-19h5.9
		l0.5,2.9c0.4-1.1,1.1-1.9,2.1-2.5c0.9-0.6,2-0.8,3.2-0.8C400.6,370.4,401.1,370.4,401.5,370.5z"/>
	<path class="st3" d="M422.5,372.4c1.9,1.3,2.9,3.4,2.9,6.1h-6.9c0-2.2-1.2-3.2-3.5-3.2c-2.4,0-3.5,1.4-3.5,4.1v2.1
		c0,2.7,1.2,4,3.7,4s3.7-1.1,3.7-3.3h6.7c0,2.8-1,4.8-2.9,6.2c-1.9,1.3-4.5,2-7.6,2c-3.3,0-6-0.8-7.8-2.5s-2.8-4.2-2.8-7.4
		s0.9-5.7,2.8-7.4s4.5-2.5,7.8-2.5C418,370.4,420.6,371.1,422.5,372.4z"/>
	<path class="st3" d="M446.9,372.8c1.8,1.6,2.8,4.1,2.8,7.5v1.2h-14.3c0,1.4,0.3,2.4,0.9,3.1s1.6,1,2.9,1c1.2,0,2.1-0.3,2.6-0.8
		c0.6-0.5,0.8-1.2,0.8-2h6.9c0,2.3-0.9,4.1-2.6,5.4s-4.3,1.9-7.7,1.9c-3.5,0-6.3-0.8-8.2-2.5c-1.9-1.6-2.9-4.1-2.9-7.5
		c0-3.3,0.9-5.7,2.8-7.4s4.5-2.5,7.8-2.5C442.4,370.4,445.1,371.2,446.9,372.8z M435.4,378.2h7c0-1-0.3-1.8-0.8-2.3
		c-0.6-0.6-1.3-0.9-2.4-0.9C437,375,435.7,376,435.4,378.2z"/>
</g>
</svg>
